<?xml version="1.0" encoding="UTF-8"?>
<svg width="368px" height="128px" viewBox="0 0 368 128" version="1.1" xmlns="http://www.w3.org/2000/svg" xmlns:xlink="http://www.w3.org/1999/xlink">
    <!-- Generator: Sketch 55 (78076) - https://sketchapp.com -->
    <title>MATH_Logo_Horizontal_White</title>
    <desc>Created with Sketch.</desc>
    <g id="Page-1" stroke="none" stroke-width="1" fill="none" fill-rule="evenodd">
        <g id="03" transform="translate(-216.000000, -494.000000)" fill="#FFFFFF">
            <g id="MATH_Logo_Horizontal" transform="translate(216.000000, 494.000000)">
                <rect id="Rectangle" opacity="0" x="0" y="0" width="368" height="128"></rect>
                <path d="M171,83.39 L171,42.79 L178.598,42.79 L190.952,61.988 L203.306,42.79 L210.904,42.79 L210.904,83.39 L203.77,83.39 L203.77,54.274 L190.952,73.414 L190.72,73.414 L178.018,54.39 L178.018,83.39 L171,83.39 Z M217.864,83.39 L235.728,42.5 L242.34,42.5 L260.204,83.39 L252.664,83.39 L248.546,73.588 L229.348,73.588 L225.172,83.39 L217.864,83.39 Z M231.958,67.266 L245.936,67.266 L238.918,51.026 L231.958,67.266 Z M271.92,83.39 L271.92,49.402 L259.044,49.402 L259.044,42.79 L291.988,42.79 L291.988,49.402 L279.112,49.402 L279.112,83.39 L271.92,83.39 Z M299.528,83.39 L299.528,42.79 L306.662,42.79 L306.662,59.668 L326.034,59.668 L326.034,42.79 L333.168,42.79 L333.168,83.39 L326.034,83.39 L326.034,66.28 L306.662,66.28 L306.662,83.39 L299.528,83.39 Z M114.847009,57.7610023 C112.569972,55.483966 112.569972,51.7921607 114.847009,49.5151245 C117.124045,47.2380882 120.81585,47.2380882 123.092886,49.5151245 C125.369923,51.7921607 125.369923,55.483966 123.092886,57.7610023 C120.81585,60.0380385 117.124045,60.0380385 114.847009,57.7610023 Z M95.2630488,77.344962 C93.5552716,75.6371848 93.5552716,72.8683309 95.2630488,71.1605537 C96.970826,69.4527765 99.7396799,69.4527765 101.447457,71.1605537 C103.155234,72.8683309 103.155234,75.6371848 101.447457,77.344962 C99.7396799,79.0527392 96.970826,79.0527392 95.2630488,77.344962 Z M126.185091,67.0376148 C124.477313,65.3298376 124.477313,62.5609836 126.185091,60.8532064 C127.892868,59.1454292 130.661722,59.1454292 132.369499,60.8532064 C134.077276,62.5609836 134.077276,65.3298376 132.369499,67.0376148 C130.661722,68.745392 127.892868,68.745392 126.185091,67.0376148 Z M115.877743,77.344962 C114.169966,75.6371848 114.169966,72.8683309 115.877743,71.1605537 C117.58552,69.4527765 120.354374,69.4527765 122.062152,71.1605537 C123.769929,72.8683309 123.769929,75.6371848 122.062152,77.344962 C120.354374,79.0527392 117.58552,79.0527392 115.877743,77.344962 Z M137.523172,76.3142273 C136.384654,75.1757092 136.384654,73.3298065 137.523172,72.1912884 C138.661691,71.0527703 140.507593,71.0527703 141.646111,72.1912884 C142.78463,73.3298065 142.78463,75.1757092 141.646111,76.3142273 C140.507593,77.4527454 138.661691,77.4527454 137.523172,76.3142273 Z M127.215825,86.6215745 C126.077307,85.4830564 126.077307,83.6371538 127.215825,82.4986356 C128.354343,81.3601175 130.200246,81.3601175 131.338764,82.4986356 C132.477282,83.6371538 132.477282,85.4830564 131.338764,86.6215745 C130.200246,87.7600927 128.354343,87.7600927 127.215825,86.6215745 Z M104.539661,68.0683495 C102.262625,65.7913132 102.262625,62.099508 104.539661,59.8224717 C106.816698,57.5454354 110.508503,57.5454354 112.785539,59.8224717 C115.062575,62.099508 115.062575,65.7913132 112.785539,68.0683495 C110.508503,70.3453858 106.816698,70.3453858 104.539661,68.0683495 Z M104.539661,47.453655 C102.262625,45.1766187 102.262625,41.4848135 104.539661,39.2077772 C106.816698,36.9307409 110.508503,36.9307409 112.785539,39.2077772 C115.062575,41.4848135 115.062575,45.1766187 112.785539,47.453655 C110.508503,49.7306913 106.816698,49.7306913 104.539661,47.453655 Z M94.2323141,57.7610023 C91.9552778,55.483966 91.9552778,51.7921607 94.2323141,49.5151245 C96.5093503,47.2380882 100.201156,47.2380882 102.478192,49.5151245 C104.755228,51.7921607 104.755228,55.483966 102.478192,57.7610023 C100.201156,60.0380385 96.5093503,60.0380385 94.2323141,57.7610023 Z M73.5218081,57.7610023 C71.2447719,55.483966 71.2447719,51.7921607 73.5218081,49.5151245 C75.7988444,47.2380882 79.4906497,47.2380882 81.7676859,49.5151245 C84.0447222,51.7921607 84.0447222,55.483966 81.7676859,57.7610023 C79.4906497,60.0380385 75.7988444,60.0380385 73.5218081,57.7610023 Z M53.9378484,77.344962 C52.2300712,75.6371848 52.2300712,72.8683309 53.9378484,71.1605537 C55.6456256,69.4527765 58.4144795,69.4527765 60.1222567,71.1605537 C61.8300339,72.8683309 61.8300339,75.6371848 60.1222567,77.344962 C58.4144795,79.0527392 55.6456256,79.0527392 53.9378484,77.344962 Z M84.8598901,67.0376148 C83.1521129,65.3298376 83.1521129,62.5609836 84.8598901,60.8532064 C86.5676673,59.1454292 89.3365213,59.1454292 91.0442985,60.8532064 C92.7520757,62.5609836 92.7520757,65.3298376 91.0442985,67.0376148 C89.3365213,68.745392 86.5676673,68.745392 84.8598901,67.0376148 Z M74.5525429,77.344962 C72.8447657,75.6371848 72.8447657,72.8683309 74.5525429,71.1605537 C76.2603201,69.4527765 79.029174,69.4527765 80.7369512,71.1605537 C82.4447284,72.8683309 82.4447284,75.6371848 80.7369512,77.344962 C79.029174,79.0527392 76.2603201,79.0527392 74.5525429,77.344962 Z M34.3538886,76.3142273 C33.2153705,75.1757092 33.2153705,73.3298065 34.3538886,72.1912884 C35.4924067,71.0527703 37.3383094,71.0527703 38.4768275,72.1912884 C39.6153456,73.3298065 39.6153456,75.1757092 38.4768275,76.3142273 C37.3383094,77.4527454 35.4924067,77.4527454 34.3538886,76.3142273 Z M44.6612359,86.6215745 C43.5227177,85.4830564 43.5227177,83.6371538 44.6612359,82.4986356 C45.799754,81.3601175 47.6456566,81.3601175 48.7841747,82.4986356 C49.9226929,83.6371538 49.9226929,85.4830564 48.7841747,86.6215745 C47.6456566,87.7600927 45.799754,87.7600927 44.6612359,86.6215745 Z M85.8906248,86.6215745 C84.7521067,85.4830564 84.7521067,83.6371538 85.8906248,82.4986356 C87.029143,81.3601175 88.8750456,81.3601175 90.0135637,82.4986356 C91.1520819,83.6371538 91.1520819,85.4830564 90.0135637,86.6215745 C88.8750456,87.7600927 87.029143,87.7600927 85.8906248,86.6215745 Z M43.6305011,67.0376148 C41.9227239,65.3298376 41.9227239,62.5609836 43.6305011,60.8532064 C45.3382783,59.1454292 48.1071323,59.1454292 49.8149095,60.8532064 C51.5226867,62.5609836 51.5226867,65.3298376 49.8149095,67.0376148 C48.1071323,68.745392 45.3382783,68.745392 43.6305011,67.0376148 Z M63.2144609,68.0683495 C60.9374246,65.7913132 60.9374246,62.099508 63.2144609,59.8224717 C65.4914972,57.5454354 69.1833024,57.5454354 71.4603387,59.8224717 C73.737375,62.099508 73.737375,65.7913132 71.4603387,68.0683495 C69.1833024,70.3453858 65.4914972,70.3453858 63.2144609,68.0683495 Z M63.2144609,47.453655 C60.9374246,45.1766187 60.9374246,41.4848135 63.2144609,39.2077772 C65.4914972,36.9307409 69.1833024,36.9307409 71.4603387,39.2077772 C73.737375,41.4848135 73.737375,45.1766187 71.4603387,47.453655 C69.1833024,49.7306913 65.4914972,49.7306913 63.2144609,47.453655 Z M52.9071136,57.7610023 C50.6300774,55.483966 50.6300774,51.7921607 52.9071136,49.5151245 C55.1841499,47.2380882 58.8759552,47.2380882 61.1529914,49.5151245 C63.4300277,51.7921607 63.4300277,55.483966 61.1529914,57.7610023 C58.8759552,60.0380385 55.1841499,60.0380385 52.9071136,57.7610023 Z" id="Combined-Shape" fill-rule="nonzero"></path>
            </g>
        </g>
    </g>
</svg>