<?xml version="1.0" encoding="UTF-8"?>
<svg width="182px" height="25px" viewBox="0 0 182 25" version="1.1" xmlns="http://www.w3.org/2000/svg" xmlns:xlink="http://www.w3.org/1999/xlink">
    <!-- Generator: Sketch 47.1 (45422) - http://www.bohemiancoding.com/sketch -->
    <title>logo-wordmark-light</title>
    <desc>Created with Sketch.</desc>
    <defs></defs>
    <g id="Logo" stroke="none" stroke-width="1" fill="none" fill-rule="evenodd">
        <g id="#V1.0#logo" transform="translate(-251.000000, -273.000000)" fill="#FFFFFF">
            <g id="logo-vertical-light" transform="translate(251.000000, 172.000000)">
                <path d="M0,124.491299 C0,125.212851 0.557563588,125.770415 1.24631861,125.770415 C1.96787149,125.770415 2.52543507,125.212851 2.52543507,124.491299 L2.52543507,107.370817 L9.83935743,118.128514 C10.1345382,118.554886 10.4953146,118.784471 10.9544846,118.784471 C11.4136546,118.784471 11.7416332,118.554886 12.0368139,118.128514 L19.3835341,107.338019 L19.3835341,124.458501 C19.3835341,125.147256 19.9738956,125.770415 20.6954485,125.770415 C21.3842035,125.770415 21.9745649,125.180054 21.9745649,124.458501 L21.9745649,103.828648 C21.9745649,103.139893 21.3842035,102.549531 20.6954485,102.549531 L20.4002677,102.549531 C19.875502,102.549531 19.4491299,102.811914 19.186747,103.238286 L10.9872825,115.570281 L2.78781794,103.238286 C2.52543507,102.844712 2.13186078,102.549531 1.57429719,102.549531 L1.27911647,102.549531 C0.590361446,102.549531 0,103.139893 0,103.828648 L0,124.491299 Z M29.5508701,116.19344 L40.4725569,116.19344 C40.210174,113.110442 38.4390897,110.421017 35.0609103,110.421017 C32.1091031,110.421017 29.8788487,112.880857 29.5508701,116.19344 Z M41.8500669,123.441767 C40.2429719,124.983266 38.3406961,126 35.4544846,126 C30.7971888,126 26.9926372,122.425033 26.9926372,117.177376 L26.9926372,117.11178 C26.9926372,112.2249 30.4364123,108.289157 35.126506,108.289157 C40.1445783,108.289157 42.997992,112.388889 42.997992,116.882195 C42.997992,117.57095 42.4404284,118.062918 41.8172691,118.062918 L29.5508701,118.062918 C29.9116466,121.736278 32.5026774,123.802544 35.5200803,123.802544 C37.6191432,123.802544 39.1606426,122.982597 40.4069612,121.834672 C40.6037483,121.670683 40.8333333,121.539491 41.1285141,121.539491 C41.7516734,121.539491 42.2436412,122.031459 42.2436412,122.621821 C42.2436412,122.917001 42.1124498,123.212182 41.8500669,123.441767 Z M63.5950469,102.779116 L63.5950469,124.491299 C63.5950469,125.212851 63.0374833,125.770415 62.3487282,125.770415 C61.6271754,125.770415 61.0696118,125.212851 61.0696118,124.491299 L61.0696118,122.195448 C59.6921017,124.228916 57.6914324,125.967202 54.5756359,125.967202 C50.5087015,125.967202 46.4745649,122.753012 46.4745649,117.177376 L46.4745649,117.11178 C46.4745649,111.568942 50.5087015,108.289157 54.5756359,108.289157 C57.7242303,108.289157 59.7576975,109.994645 61.0696118,111.896921 L61.0696118,102.779116 C61.0696118,102.057564 61.5943775,101.5 62.3159304,101.5 C63.0374833,101.5 63.5950469,102.057564 63.5950469,102.779116 Z M55.0348059,110.552209 C51.7550201,110.552209 49.0655957,112.97925 49.0655957,117.078983 L49.0655957,117.144578 C49.0655957,121.145917 51.8534137,123.70415 55.0348059,123.70415 C58.1834003,123.70415 61.1680054,121.047523 61.1680054,117.144578 L61.1680054,117.078983 C61.1680054,113.176037 58.1834003,110.552209 55.0348059,110.552209 Z M69.2362784,103.763052 C69.2362784,104.550201 69.8922356,105.107764 70.7121821,105.107764 C71.5649264,105.107764 72.2208835,104.550201 72.2208835,103.763052 L72.2208835,103.33668 C72.2208835,102.516734 71.5649264,101.991968 70.7121821,101.991968 C69.8922356,101.991968 69.2362784,102.516734 69.2362784,103.33668 L69.2362784,103.763052 Z M69.4658635,124.491299 C69.4658635,125.212851 70.023427,125.770415 70.7449799,125.770415 C71.4665328,125.770415 71.9912985,125.212851 71.9912985,124.491299 L71.9912985,109.76506 C71.9912985,109.043507 71.4337349,108.485944 70.7121821,108.485944 C70.023427,108.485944 69.4658635,109.076305 69.4658635,109.76506 L69.4658635,124.491299 Z M86.1599732,125.934404 C90.7188755,125.934404 93.9986613,123.376171 93.9986613,119.440428 L93.9986613,119.374833 C93.9986613,115.865462 91.6372155,113.995984 86.5207497,112.880857 C81.4698795,111.798527 80.2891566,110.585007 80.2891566,108.420348 L80.2891566,108.354752 C80.2891566,106.288487 82.1914324,104.648594 85.1760375,104.648594 C87.3078983,104.648594 89.1773762,105.238956 91.1124498,106.649264 C91.3420348,106.813253 91.5716198,106.878849 91.8668005,106.878849 C92.5555556,106.878849 93.1131191,106.321285 93.1131191,105.63253 C93.1131191,105.140562 92.8179384,104.779786 92.5555556,104.582999 C90.4564926,103.074297 88.2590361,102.319946 85.2416332,102.319946 C80.8795181,102.319946 77.6981258,104.976573 77.6981258,108.584337 L77.6981258,108.649933 C77.6981258,112.421687 80.1251673,114.127175 85.4056225,115.2751 C90.2269076,116.291834 91.3748327,117.505355 91.3748327,119.637216 L91.3748327,119.702811 C91.3748327,121.965863 89.3413655,123.605756 86.2583668,123.605756 C83.3393574,123.605756 81.1746988,122.720214 79.0100402,120.883534 C78.8460509,120.719545 78.5508701,120.588353 78.2228916,120.588353 C77.5341365,120.588353 76.976573,121.145917 76.976573,121.86747 C76.976573,122.293842 77.1733601,122.654618 77.4685408,122.851406 C80.0267738,124.884873 82.8145917,125.934404 86.1599732,125.934404 Z M98.8527443,124.491299 C98.8527443,125.212851 99.4103079,125.770415 100.131861,125.770415 C100.853414,125.770415 101.378179,125.212851 101.378179,124.491299 L101.378179,115.89826 C101.378179,112.716867 103.542838,110.585007 106.461847,110.585007 C109.446452,110.585007 111.151941,112.552878 111.151941,115.701473 L111.151941,124.491299 C111.151941,125.212851 111.709505,125.770415 112.431058,125.770415 C113.119813,125.770415 113.677376,125.212851 113.677376,124.491299 L113.677376,115.078313 C113.677376,111.044177 111.283133,108.289157 107.1834,108.289157 C104.264391,108.289157 102.493307,109.76506 101.378179,111.60174 L101.378179,102.779116 C101.378179,102.090361 100.820616,101.5 100.099063,101.5 C99.4103079,101.5 98.8527443,102.090361 98.8527443,102.779116 L98.8527443,124.491299 Z M124.107095,125.967202 C120.958501,125.967202 117.777108,124.16332 117.777108,120.686747 L117.777108,120.621151 C117.777108,117.046185 120.728916,115.143909 125.025435,115.143909 C127.190094,115.143909 128.731593,115.43909 130.240295,115.865462 L130.240295,115.2751 C130.240295,112.2249 128.370817,110.650602 125.189424,110.650602 C123.483936,110.650602 122.04083,111.044177 120.794511,111.60174 C120.630522,111.667336 120.466533,111.700134 120.335341,111.700134 C119.74498,111.700134 119.220214,111.208166 119.220214,110.617805 C119.220214,110.093039 119.580991,109.699465 119.908969,109.568273 C121.58166,108.84672 123.287149,108.420348 125.451807,108.420348 C127.846051,108.420348 129.682731,109.043507 130.92905,110.289826 C132.076975,111.437751 132.667336,113.077644 132.667336,115.242303 L132.667336,124.524096 C132.667336,125.245649 132.14257,125.770415 131.453815,125.770415 C130.732262,125.770415 130.240295,125.245649 130.240295,124.589692 L130.240295,123.048193 C129.059572,124.589692 127.0917,125.967202 124.107095,125.967202 Z M124.599063,123.966533 C127.714859,123.966533 130.273092,122.064257 130.273092,119.374833 L130.273092,117.73494 C129.026774,117.374163 127.354083,117.013387 125.287818,117.013387 C122.106426,117.013387 120.335341,118.390897 120.335341,120.522758 L120.335341,120.588353 C120.335341,122.720214 122.303213,123.966533 124.599063,123.966533 Z M138.046185,124.491299 C138.046185,125.212851 138.603748,125.770415 139.325301,125.770415 C140.046854,125.770415 140.57162,125.180054 140.57162,124.491299 L140.57162,118.718876 C140.57162,113.831995 143.261044,111.372155 146.54083,110.978581 C147.196787,110.880187 147.655957,110.38822 147.655957,109.699465 C147.655957,108.977912 147.163989,108.420348 146.409639,108.420348 C144.277778,108.420348 141.817938,110.125837 140.57162,112.946452 L140.57162,109.76506 C140.57162,109.043507 140.014056,108.485944 139.292503,108.485944 C138.603748,108.485944 138.046185,109.076305 138.046185,109.76506 L138.046185,124.491299 Z M152.116466,116.19344 L163.038153,116.19344 C162.77577,113.110442 161.004685,110.421017 157.626506,110.421017 C154.674699,110.421017 152.444444,112.880857 152.116466,116.19344 Z M164.415663,123.441767 C162.808568,124.983266 160.906292,126 158.02008,126 C153.362784,126 149.558233,122.425033 149.558233,117.177376 L149.558233,117.11178 C149.558233,112.2249 153.002008,108.289157 157.692102,108.289157 C162.710174,108.289157 165.563588,112.388889 165.563588,116.882195 C165.563588,117.57095 165.006024,118.062918 164.382865,118.062918 L152.116466,118.062918 C152.477242,121.736278 155.068273,123.802544 158.085676,123.802544 C160.184739,123.802544 161.726238,122.982597 162.972557,121.834672 C163.169344,121.670683 163.398929,121.539491 163.69411,121.539491 C164.317269,121.539491 164.809237,122.031459 164.809237,122.621821 C164.809237,122.917001 164.678046,123.212182 164.415663,123.441767 Z M175.63253,125.934404 C179.01071,125.934404 181.667336,124.064926 181.667336,120.850736 L181.667336,120.785141 C181.667336,117.73494 178.84672,116.718206 176.222892,115.931058 C173.959839,115.242303 171.860776,114.619143 171.860776,113.012048 L171.860776,112.946452 C171.860776,111.536145 173.139893,110.486613 175.140562,110.486613 C176.583668,110.486613 178.125167,110.978581 179.568273,111.798527 C179.699465,111.864123 179.896252,111.929719 180.125837,111.929719 C180.748996,111.929719 181.240964,111.437751 181.240964,110.84739 C181.240964,110.355422 180.945783,109.994645 180.617805,109.797858 C178.977912,108.912316 177.01004,108.354752 175.206158,108.354752 C171.860776,108.354752 169.433735,110.289826 169.433735,113.208835 L169.433735,113.274431 C169.433735,116.390228 172.385542,117.308568 175.042169,118.062918 C177.272423,118.686078 179.273092,119.342035 179.273092,121.047523 L179.273092,121.113119 C179.273092,122.753012 177.797189,123.802544 175.763722,123.802544 C173.927041,123.802544 172.123159,123.179384 170.384873,121.998661 C170.220884,121.86747 169.991299,121.801874 169.761714,121.801874 C169.138554,121.801874 168.646586,122.293842 168.646586,122.884203 C168.646586,123.310576 168.876171,123.638554 169.105756,123.802544 C170.942436,125.114458 173.402276,125.934404 175.63253,125.934404 Z" id="logo-wordmark-light"></path>
            </g>
        </g>
    </g>
</svg>