<?xml version="1.0" encoding="UTF-8"?>
<svg width="227px" height="40px" viewBox="0 0 227 40" version="1.1" xmlns="http://www.w3.org/2000/svg" xmlns:xlink="http://www.w3.org/1999/xlink">
    <!-- Generator: Sketch 47.1 (45422) - http://www.bohemiancoding.com/sketch -->
    <title>logo-horizontal-light</title>
    <desc>Created with Sketch.</desc>
    <defs></defs>
    <g id="Logo" stroke="none" stroke-width="1" fill="none" fill-rule="evenodd">
        <g id="#V1.0#logo" transform="translate(-251.000000, -741.000000)" fill="#FFFFFF">
            <g id="logo-horizontal-light" transform="translate(251.000000, 741.000000)">
                <path d="M62.2222222,29.7426744 C62.2222222,30.3971441 62.7279488,30.9028707 63.3526699,30.9028707 C64.0071397,30.9028707 64.5128663,30.3971441 64.5128663,29.7426744 L64.5128663,14.2138926 L71.1468095,23.9714413 C71.4145471,24.3581734 71.7417819,24.5664138 72.1582627,24.5664138 C72.5747434,24.5664138 72.8722297,24.3581734 73.1399673,23.9714413 L79.8036591,14.184144 L79.8036591,29.7129258 C79.8036591,30.3376469 80.3391343,30.9028707 80.993604,30.9028707 C81.6183252,30.9028707 82.1538004,30.3673955 82.1538004,29.7129258 L82.1538004,11.0010412 C82.1538004,10.3763201 81.6183252,9.84084486 80.993604,9.84084486 L80.7258664,9.84084486 C80.2498884,9.84084486 79.8631563,10.0788339 79.6251673,10.465566 L72.1880113,21.6510486 L64.7508553,10.465566 C64.5128663,10.1085825 64.1558828,9.84084486 63.6501562,9.84084486 L63.3824186,9.84084486 C62.7576975,9.84084486 62.2222222,10.3763201 62.2222222,11.0010412 L62.2222222,29.7426744 Z M89.0257326,22.2162725 L98.9320244,22.2162725 C98.6940354,19.4199018 97.0876097,16.9805147 94.0235014,16.9805147 C91.3461252,16.9805147 89.3232188,19.2116615 89.0257326,22.2162725 Z M100.181467,28.7907184 C98.723784,30.1889038 96.9983638,31.1111111 94.3804849,31.1111111 C90.1561803,31.1111111 86.7053399,27.8685111 86.7053399,23.1087312 L86.7053399,23.049234 C86.7053399,18.616689 89.8289454,15.0468541 94.0829987,15.0468541 C98.6345382,15.0468541 101.222668,18.7654321 101.222668,22.8409936 C101.222668,23.4657147 100.716942,23.9119441 100.151718,23.9119441 L89.0257326,23.9119441 C89.3529674,27.24379 91.7031087,29.1179533 94.4399822,29.1179533 C96.3438941,29.1179533 97.7420794,28.3742377 98.8725271,27.3330358 C99.0510189,27.1842927 99.2592593,27.0652982 99.5269969,27.0652982 C100.092221,27.0652982 100.53845,27.5115276 100.53845,28.0470028 C100.53845,28.3147404 100.419456,28.5824781 100.181467,28.7907184 Z M119.904804,10.0490852 L119.904804,29.7426744 C119.904804,30.3971441 119.399078,30.9028707 118.774357,30.9028707 C118.119887,30.9028707 117.61416,30.3971441 117.61416,29.7426744 L117.61416,27.6602707 C116.364718,29.5046854 114.550052,31.0813625 111.723933,31.0813625 C108.035103,31.0813625 104.376023,28.1659973 104.376023,23.1087312 L104.376023,23.049234 C104.376023,18.0217165 108.035103,15.0468541 111.723933,15.0468541 C114.579801,15.0468541 116.424215,16.5937825 117.61416,18.3192027 L117.61416,10.0490852 C117.61416,9.3946155 118.090138,8.88888889 118.744608,8.88888889 C119.399078,8.88888889 119.904804,9.3946155 119.904804,10.0490852 Z M112.140414,17.0995091 C109.165551,17.0995091 106.726164,19.3009073 106.726164,23.0194853 L106.726164,23.0789826 C106.726164,26.7083147 109.254797,29.0287074 112.140414,29.0287074 C114.996281,29.0287074 117.703406,26.6190689 117.703406,23.0789826 L117.703406,23.0194853 C117.703406,19.4793991 114.996281,17.0995091 112.140414,17.0995091 Z M125.021568,10.941544 C125.021568,11.6555109 125.61654,12.1612375 126.360256,12.1612375 C127.13372,12.1612375 127.728693,11.6555109 127.728693,10.941544 L127.728693,10.5548118 C127.728693,9.81109624 127.13372,9.33511825 126.360256,9.33511825 C125.61654,9.33511825 125.021568,9.81109624 125.021568,10.5548118 L125.021568,10.941544 Z M125.229808,29.7426744 C125.229808,30.3971441 125.735535,30.9028707 126.390004,30.9028707 C127.044474,30.9028707 127.520452,30.3971441 127.520452,29.7426744 L127.520452,16.3855422 C127.520452,15.7310724 127.014726,15.2253458 126.360256,15.2253458 C125.735535,15.2253458 125.229808,15.7608211 125.229808,16.3855422 L125.229808,29.7426744 Z M140.371858,31.0516139 C144.506917,31.0516139 147.481779,28.7312212 147.481779,25.1613863 L147.481779,25.101889 C147.481779,21.9187863 145.339878,20.2231147 140.699093,19.2116615 C136.117805,18.2299569 135.046854,17.1292578 135.046854,15.1658486 L135.046854,15.1063513 C135.046854,13.232188 136.772274,11.7447568 139.479399,11.7447568 C141.41306,11.7447568 143.108731,12.280232 144.8639,13.5594229 C145.07214,13.708166 145.280381,13.7676632 145.548118,13.7676632 C146.17284,13.7676632 146.678566,13.2619366 146.678566,12.6372155 C146.678566,12.1909862 146.410828,11.8637513 146.17284,11.6852596 C144.268928,10.3168228 142.27577,9.63260449 139.538896,9.63260449 C135.582329,9.63260449 132.696713,12.042243 132.696713,15.3145917 L132.696713,15.3740889 C132.696713,18.7951807 134.898111,20.3421092 139.687639,21.383311 C144.060687,22.3055184 145.101889,23.4062175 145.101889,25.339878 L145.101889,25.3993753 C145.101889,27.4520303 143.257474,28.9394615 140.461104,28.9394615 C137.813476,28.9394615 135.850067,28.1362487 133.886658,26.4703257 C133.737915,26.3215826 133.470177,26.2025881 133.172691,26.2025881 C132.54797,26.2025881 132.042243,26.7083147 132.042243,27.3627845 C132.042243,27.7495166 132.220735,28.0767515 132.488472,28.2552432 C134.808865,30.0996579 137.337498,31.0516139 140.371858,31.0516139 Z M151.884575,29.7426744 C151.884575,30.3971441 152.390302,30.9028707 153.044772,30.9028707 C153.699241,30.9028707 154.175219,30.3971441 154.175219,29.7426744 L154.175219,21.9485349 C154.175219,19.0629183 156.138629,17.1292578 158.786256,17.1292578 C161.493381,17.1292578 163.040309,18.9141752 163.040309,21.7700431 L163.040309,29.7426744 C163.040309,30.3971441 163.546036,30.9028707 164.200506,30.9028707 C164.825227,30.9028707 165.330953,30.3971441 165.330953,29.7426744 L165.330953,21.2048193 C165.330953,17.5457385 163.159304,15.0468541 159.440726,15.0468541 C156.793098,15.0468541 155.186673,16.3855422 154.175219,18.0514651 L154.175219,10.0490852 C154.175219,9.42436412 153.669493,8.88888889 153.015023,8.88888889 C152.390302,8.88888889 151.884575,9.42436412 151.884575,10.0490852 L151.884575,29.7426744 Z M174.791016,31.0813625 C171.935148,31.0813625 169.049531,29.4451882 169.049531,26.291834 L169.049531,26.2323368 C169.049531,22.9897367 171.726908,21.2643165 175.623977,21.2643165 C177.587387,21.2643165 178.985572,21.5320541 180.354009,21.9187863 L180.354009,21.383311 C180.354009,18.616689 178.658337,17.188755 175.772721,17.188755 C174.225792,17.188755 172.916853,17.5457385 171.786405,18.0514651 C171.637662,18.1109624 171.488919,18.140711 171.369924,18.140711 C170.834449,18.140711 170.358471,17.6944816 170.358471,17.1590064 C170.358471,16.6830284 170.685706,16.3260449 170.983192,16.2070504 C172.500372,15.5525807 174.0473,15.1658486 176.01071,15.1658486 C178.182359,15.1658486 179.848282,15.7310724 180.97873,16.8615202 C182.019932,17.902722 182.555407,19.3901532 182.555407,21.3535624 L182.555407,29.772423 C182.555407,30.4268928 182.079429,30.9028707 181.454708,30.9028707 C180.800238,30.9028707 180.354009,30.4268928 180.354009,29.8319203 L180.354009,28.4337349 C179.283058,29.8319203 177.498141,31.0813625 174.791016,31.0813625 Z M175.237245,29.2666964 C178.063365,29.2666964 180.383757,27.5412762 180.383757,25.101889 L180.383757,23.6144578 C179.25331,23.287223 177.73613,22.9599881 175.861966,22.9599881 C172.97635,22.9599881 171.369924,24.2094303 171.369924,26.1430909 L171.369924,26.2025881 C171.369924,28.1362487 173.154842,29.2666964 175.237245,29.2666964 Z M187.434181,29.7426744 C187.434181,30.3971441 187.939908,30.9028707 188.594378,30.9028707 C189.248847,30.9028707 189.724825,30.3673955 189.724825,29.7426744 L189.724825,24.5069166 C189.724825,20.0743716 192.164212,17.8432248 195.139075,17.4862413 C195.734047,17.3969954 196.150528,16.950766 196.150528,16.3260449 C196.150528,15.6715752 195.704299,15.1658486 195.02008,15.1658486 C193.08642,15.1658486 190.855273,16.712777 189.724825,19.2711587 L189.724825,16.3855422 C189.724825,15.7310724 189.219099,15.2253458 188.564629,15.2253458 C187.939908,15.2253458 187.434181,15.7608211 187.434181,16.3855422 L187.434181,29.7426744 Z M200.196341,22.2162725 L210.102633,22.2162725 C209.864644,19.4199018 208.258218,16.9805147 205.19411,16.9805147 C202.516734,16.9805147 200.493827,19.2116615 200.196341,22.2162725 Z M211.352075,28.7907184 C209.894392,30.1889038 208.168972,31.1111111 205.551093,31.1111111 C201.326789,31.1111111 197.875948,27.8685111 197.875948,23.1087312 L197.875948,23.049234 C197.875948,18.616689 200.999554,15.0468541 205.253607,15.0468541 C209.805147,15.0468541 212.393277,18.7654321 212.393277,22.8409936 C212.393277,23.4657147 211.88755,23.9119441 211.322326,23.9119441 L200.196341,23.9119441 C200.523576,27.24379 202.873717,29.1179533 205.610591,29.1179533 C207.514502,29.1179533 208.912688,28.3742377 210.043136,27.3330358 C210.221627,27.1842927 210.429868,27.0652982 210.697605,27.0652982 C211.262829,27.0652982 211.709058,27.5115276 211.709058,28.0470028 C211.709058,28.3147404 211.590064,28.5824781 211.352075,28.7907184 Z M221.526104,31.0516139 C224.590213,31.0516139 226.999851,29.3559423 226.999851,26.4405771 L226.999851,26.3810799 C226.999851,23.6144578 224.44147,22.6922505 222.06158,21.9782835 C220.008925,21.3535624 218.105013,20.7883385 218.105013,19.330656 L218.105013,19.2711587 C218.105013,17.9919679 219.265209,17.0400119 221.079875,17.0400119 C222.388815,17.0400119 223.787,17.4862413 225.095939,18.2299569 C225.214934,18.2894541 225.393426,18.3489514 225.601666,18.3489514 C226.16689,18.3489514 226.613119,17.902722 226.613119,17.3672468 C226.613119,16.9210174 226.345382,16.5937825 226.047895,16.4152908 C224.560464,15.6120779 222.775547,15.1063513 221.139372,15.1063513 C218.105013,15.1063513 215.903614,16.8615202 215.903614,19.5091477 L215.903614,19.568645 C215.903614,22.3947642 218.580991,23.2277257 220.990629,23.9119441 C223.013536,24.4771679 224.828202,25.0721404 224.828202,26.6190689 L224.828202,26.6785661 C224.828202,28.1659973 223.489514,29.1179533 221.645099,29.1179533 C219.979176,29.1179533 218.343002,28.5527294 216.766325,27.481779 C216.617581,27.3627845 216.409341,27.3032872 216.201101,27.3032872 C215.635877,27.3032872 215.189647,27.7495166 215.189647,28.2849918 C215.189647,28.6717239 215.397888,28.9692102 215.606128,29.1179533 C217.272051,30.3078983 219.503198,31.0516139 221.526104,31.0516139 Z" id="MediShares"></path>
                <g id="Group-8">
                    <circle id="Oval-5" cx="23.7037037" cy="16.2962963" r="2.96296296"></circle>
                    <circle id="Oval-5" cx="23.7037037" cy="8.88888889" r="2.22222222"></circle>
                    <circle id="Oval-5" cx="16.2962963" cy="8.88888889" r="2.22222222"></circle>
                    <circle id="Oval-5" cx="23.7037037" cy="31.1111111" r="2.22222222"></circle>
                    <circle id="Oval-5" cx="31.1111111" cy="16.2962963" r="2.22222222"></circle>
                    <circle id="Oval-5" cx="31.1111111" cy="23.7037037" r="2.22222222"></circle>
                    <circle id="Oval-5" cx="8.88888889" cy="16.2962963" r="2.22222222"></circle>
                    <circle id="Oval-5" cx="8.88888889" cy="23.7037037" r="2.22222222"></circle>
                    <circle id="Oval-5" cx="1.48148148" cy="16.2962963" r="1.48148148"></circle>
                    <circle id="Oval-5" cx="16.2962963" cy="1.48148148" r="1.48148148"></circle>
                    <circle id="Oval-5" cx="23.7037037" cy="1.48148148" r="1.48148148"></circle>
                    <circle id="Oval-5" cx="16.2962963" cy="38.5185185" r="1.48148148"></circle>
                    <circle id="Oval-5" cx="23.7037037" cy="38.5185185" r="1.48148148"></circle>
                    <circle id="Oval-5" cx="1.48148148" cy="23.7037037" r="1.48148148"></circle>
                    <circle id="Oval-5" cx="38.5185185" cy="16.2962963" r="1.48148148"></circle>
                    <circle id="Oval-5" cx="38.5185185" cy="23.7037037" r="1.48148148"></circle>
                    <circle id="Oval-5" cx="16.2962963" cy="31.1111111" r="2.22222222"></circle>
                    <circle id="Oval-5" cx="23.7037037" cy="23.7037037" r="2.96296296"></circle>
                    <circle id="Oval-5" cx="16.2962963" cy="16.2962963" r="2.96296296"></circle>
                    <circle id="Oval-5" cx="16.2962963" cy="23.7037037" r="2.96296296"></circle>
                </g>
            </g>
        </g>
    </g>
</svg>