<?xml version="1.0" encoding="UTF-8"?>
<svg width="74px" height="74px" viewBox="0 0 74 74" version="1.1" xmlns="http://www.w3.org/2000/svg" xmlns:xlink="http://www.w3.org/1999/xlink">
    <!-- Generator: Sketch 47.1 (45422) - http://www.bohemiancoding.com/sketch -->
    <title>logo-icon-dark</title>
    <desc>Created with Sketch.</desc>
    <defs></defs>
    <g id="Logo" stroke="none" stroke-width="1" fill="none" fill-rule="evenodd">
        <g id="#V1.0#logo" transform="translate(-337.000000, -256.000000)" fill="#2C363F">
            <g id="logo-vertical-dark" transform="translate(284.000000, 256.000000)">
                <g id="logo-icon-dark" transform="translate(53.375000, 0.000000)">
                    <circle id="Oval-5" cx="43.5555556" cy="29.9444444" r="5.44444444"></circle>
                    <circle id="Oval-5" cx="43.5555556" cy="16.3333333" r="4.08333333"></circle>
                    <circle id="Oval-5" cx="29.9444444" cy="16.3333333" r="4.08333333"></circle>
                    <circle id="Oval-5" cx="43.5555556" cy="57.1666667" r="4.08333333"></circle>
                    <circle id="Oval-5" cx="57.1666667" cy="29.9444444" r="4.08333333"></circle>
                    <circle id="Oval-5" cx="57.1666667" cy="43.5555556" r="4.08333333"></circle>
                    <circle id="Oval-5" cx="16.3333333" cy="29.9444444" r="4.08333333"></circle>
                    <circle id="Oval-5" cx="16.3333333" cy="43.5555556" r="4.08333333"></circle>
                    <circle id="Oval-5" cx="2.72222222" cy="29.9444444" r="2.72222222"></circle>
                    <circle id="Oval-5" cx="29.9444444" cy="2.72222222" r="2.72222222"></circle>
                    <circle id="Oval-5" cx="43.5555556" cy="2.72222222" r="2.72222222"></circle>
                    <circle id="Oval-5" cx="29.9444444" cy="70.7777778" r="2.72222222"></circle>
                    <circle id="Oval-5" cx="43.5555556" cy="70.7777778" r="2.72222222"></circle>
                    <circle id="Oval-5" cx="2.72222222" cy="43.5555556" r="2.72222222"></circle>
                    <circle id="Oval-5" cx="70.7777778" cy="29.9444444" r="2.72222222"></circle>
                    <circle id="Oval-5" cx="70.7777778" cy="43.5555556" r="2.72222222"></circle>
                    <circle id="Oval-5" cx="29.9444444" cy="57.1666667" r="4.08333333"></circle>
                    <circle id="Oval-5" cx="43.5555556" cy="43.5555556" r="5.44444444"></circle>
                    <circle id="Oval-5" cx="29.9444444" cy="29.9444444" r="5.44444444"></circle>
                    <circle id="Oval-5" cx="29.9444444" cy="43.5555556" r="5.44444444"></circle>
                </g>
            </g>
        </g>
    </g>
</svg>